<svg xmlns="http://www.w3.org/2000/svg" xmlns:xlink="http://www.w3.org/1999/xlink" width="250" zoomAndPan="magnify" viewBox="0 0 187.5 112.499997" height="150" preserveAspectRatio="xMidYMid meet" version="1.0"><defs><g/><clipPath id="8c34dd2096"><path d="M 81.242188 11.199219 L 105.882812 11.199219 L 105.882812 33.601562 L 81.242188 33.601562 Z M 81.242188 11.199219 " clip-rule="nonzero"/></clipPath></defs><g clip-path="url(#8c34dd2096)"><path fill="#9f3730" d="M 93.5 33.761719 L 91.722656 32.148438 C 85.410156 26.421875 81.242188 22.640625 81.242188 18.011719 C 81.242188 14.230469 84.203125 11.273438 87.984375 11.273438 C 90.117188 11.273438 92.164062 12.265625 93.5 13.828125 C 94.835938 12.265625 96.882812 11.273438 99.015625 11.273438 C 102.796875 11.273438 105.753906 14.230469 105.753906 18.011719 C 105.753906 22.640625 101.589844 26.421875 95.277344 32.148438 Z M 93.5 33.761719 " fill-opacity="1" fill-rule="nonzero"/></g><g fill="#9f3730" fill-opacity="1"><g transform="translate(27.415639, 60.967253)"><g><path d="M 10.34375 0 L 8.109375 -5.375 C 7.253906 -5.300781 6.550781 -5.128906 6 -4.859375 C 5.457031 -4.597656 5.015625 -4.28125 4.671875 -3.90625 C 4.335938 -3.53125 4.066406 -3.132812 3.859375 -2.71875 C 3.660156 -2.3125 3.476562 -1.925781 3.3125 -1.5625 C 3.125 -1.070312 2.921875 -0.664062 2.703125 -0.34375 C 2.492188 -0.0195312 2.160156 0.132812 1.703125 0.125 C 1.648438 0.101562 1.597656 0.0859375 1.546875 0.078125 C 1.503906 0.0664062 1.453125 0.0351562 1.390625 -0.015625 C 0.847656 -0.253906 0.628906 -0.832031 0.734375 -1.75 C 0.785156 -2.1875 0.878906 -2.675781 1.015625 -3.21875 C 1.160156 -3.769531 1.351562 -4.363281 1.59375 -5 C 1.945312 -5.957031 2.363281 -6.96875 2.84375 -8.03125 C 3.332031 -9.09375 3.84375 -10.144531 4.375 -11.1875 C 4.914062 -12.226562 5.4375 -13.171875 5.9375 -14.015625 L 6.078125 -14.015625 L 12.015625 0 Z M 8.046875 -5.515625 L 5.125 -12.3125 C 4.507812 -11.144531 3.894531 -9.914062 3.28125 -8.625 C 2.664062 -7.332031 2.148438 -6.113281 1.734375 -4.96875 C 1.492188 -4.332031 1.300781 -3.742188 1.15625 -3.203125 C 1.019531 -2.660156 0.925781 -2.175781 0.875 -1.75 C 0.863281 -1.332031 0.894531 -0.984375 0.96875 -0.703125 C 1.050781 -0.421875 1.210938 -0.238281 1.453125 -0.15625 C 1.515625 -0.144531 1.5625 -0.128906 1.59375 -0.109375 C 1.625 -0.0976562 1.671875 -0.0820312 1.734375 -0.0625 C 2.128906 -0.03125 2.425781 -0.164062 2.625 -0.46875 C 2.820312 -0.78125 3 -1.160156 3.15625 -1.609375 C 3.3125 -1.984375 3.492188 -2.378906 3.703125 -2.796875 C 3.921875 -3.210938 4.203125 -3.609375 4.546875 -3.984375 C 4.898438 -4.367188 5.351562 -4.703125 5.90625 -4.984375 C 6.46875 -5.265625 7.179688 -5.441406 8.046875 -5.515625 Z M 8.046875 -5.515625 "/></g></g></g><g fill="#9f3730" fill-opacity="1"><g transform="translate(40.129004, 60.967253)"><g><path d="M 9.09375 -2.9375 L 8.625 0 L 0.6875 0 L 0.6875 -14.015625 L 2.28125 -14.015625 L 2.28125 -0.15625 L 5.640625 -0.15625 C 6.503906 -0.15625 7.203125 -0.367188 7.734375 -0.796875 C 8.273438 -1.222656 8.726562 -1.9375 9.09375 -2.9375 Z M 9.09375 -2.9375 "/></g></g></g><g fill="#9f3730" fill-opacity="1"><g transform="translate(49.922265, 60.967253)"><g><path d="M 2.21875 -9.359375 L 2.21875 -0.15625 L 5.578125 -0.15625 C 6.441406 -0.15625 7.144531 -0.367188 7.6875 -0.796875 C 8.238281 -1.222656 8.695312 -1.9375 9.0625 -2.9375 L 8.59375 0 L 0.6875 0 L 0.6875 -14.015625 L 8.71875 -14.015625 L 8.71875 -12.4375 C 8.25 -12.882812 7.796875 -13.207031 7.359375 -13.40625 C 6.929688 -13.613281 6.441406 -13.742188 5.890625 -13.796875 C 5.335938 -13.847656 4.660156 -13.875 3.859375 -13.875 L 2.21875 -13.875 L 2.21875 -10.671875 C 2.21875 -9.765625 2.367188 -9.070312 2.671875 -8.59375 C 2.984375 -8.125 3.441406 -7.804688 4.046875 -7.640625 C 4.660156 -7.472656 5.421875 -7.390625 6.328125 -7.390625 L 6.328125 -5.8125 C 6.035156 -6.144531 5.6875 -6.40625 5.28125 -6.59375 C 4.882812 -6.789062 4.476562 -6.988281 4.0625 -7.1875 C 3.644531 -7.394531 3.269531 -7.660156 2.9375 -7.984375 C 2.601562 -8.316406 2.363281 -8.773438 2.21875 -9.359375 Z M 2.21875 -9.359375 "/></g></g></g><g fill="#9f3730" fill-opacity="1"><g transform="translate(59.675801, 60.967253)"><g><path d="M 0.6875 -14.015625 L 2.1875 -14.015625 C 3.269531 -14.015625 4.226562 -13.644531 5.0625 -12.90625 C 5.90625 -12.175781 6.613281 -11.238281 7.1875 -10.09375 C 7.769531 -9 8.234375 -7.800781 8.578125 -6.5 C 8.921875 -5.195312 9.164062 -3.90625 9.3125 -2.625 L 9.3125 -14.015625 L 10.796875 -14.015625 L 10.796875 0 L 9.3125 0 C 9.3125 -1.0625 9.226562 -2.179688 9.0625 -3.359375 C 8.894531 -4.535156 8.648438 -5.695312 8.328125 -6.84375 C 8.003906 -8 7.597656 -9.054688 7.109375 -10.015625 C 6.515625 -11.148438 5.8125 -12.078125 5 -12.796875 C 4.195312 -13.515625 3.257812 -13.875 2.1875 -13.875 L 2.1875 0 L 0.6875 0 Z M 0.6875 -14.015625 "/></g></g></g><g fill="#9f3730" fill-opacity="1"><g transform="translate(71.177425, 60.967253)"><g><path d="M 10.34375 0 L 8.109375 -5.375 C 7.253906 -5.300781 6.550781 -5.128906 6 -4.859375 C 5.457031 -4.597656 5.015625 -4.28125 4.671875 -3.90625 C 4.335938 -3.53125 4.066406 -3.132812 3.859375 -2.71875 C 3.660156 -2.3125 3.476562 -1.925781 3.3125 -1.5625 C 3.125 -1.070312 2.921875 -0.664062 2.703125 -0.34375 C 2.492188 -0.0195312 2.160156 0.132812 1.703125 0.125 C 1.648438 0.101562 1.597656 0.0859375 1.546875 0.078125 C 1.503906 0.0664062 1.453125 0.0351562 1.390625 -0.015625 C 0.847656 -0.253906 0.628906 -0.832031 0.734375 -1.75 C 0.785156 -2.1875 0.878906 -2.675781 1.015625 -3.21875 C 1.160156 -3.769531 1.351562 -4.363281 1.59375 -5 C 1.945312 -5.957031 2.363281 -6.96875 2.84375 -8.03125 C 3.332031 -9.09375 3.84375 -10.144531 4.375 -11.1875 C 4.914062 -12.226562 5.4375 -13.171875 5.9375 -14.015625 L 6.078125 -14.015625 L 12.015625 0 Z M 8.046875 -5.515625 L 5.125 -12.3125 C 4.507812 -11.144531 3.894531 -9.914062 3.28125 -8.625 C 2.664062 -7.332031 2.148438 -6.113281 1.734375 -4.96875 C 1.492188 -4.332031 1.300781 -3.742188 1.15625 -3.203125 C 1.019531 -2.660156 0.925781 -2.175781 0.875 -1.75 C 0.863281 -1.332031 0.894531 -0.984375 0.96875 -0.703125 C 1.050781 -0.421875 1.210938 -0.238281 1.453125 -0.15625 C 1.515625 -0.144531 1.5625 -0.128906 1.59375 -0.109375 C 1.625 -0.0976562 1.671875 -0.0820312 1.734375 -0.0625 C 2.128906 -0.03125 2.425781 -0.164062 2.625 -0.46875 C 2.820312 -0.78125 3 -1.160156 3.15625 -1.609375 C 3.3125 -1.984375 3.492188 -2.378906 3.703125 -2.796875 C 3.921875 -3.210938 4.203125 -3.609375 4.546875 -3.984375 C 4.898438 -4.367188 5.351562 -4.703125 5.90625 -4.984375 C 6.46875 -5.265625 7.179688 -5.441406 8.046875 -5.515625 Z M 8.046875 -5.515625 "/></g></g></g><g fill="#9f3730" fill-opacity="1"><g transform="translate(83.890789, 60.967253)"><g/></g></g><g fill="#9f3730" fill-opacity="1"><g transform="translate(89.433021, 60.967253)"><g><path d="M 6.3125 -7.75 C 7 -7.582031 7.554688 -7.273438 7.984375 -6.828125 C 8.410156 -6.378906 8.765625 -5.847656 9.046875 -5.234375 C 9.328125 -4.628906 9.601562 -4.015625 9.875 -3.390625 C 10.125 -2.828125 10.378906 -2.296875 10.640625 -1.796875 C 10.910156 -1.296875 11.207031 -0.894531 11.53125 -0.59375 C 11.863281 -0.300781 12.25 -0.15625 12.6875 -0.15625 L 12.6875 0 C 11.65625 0 10.835938 -0.132812 10.234375 -0.40625 C 9.628906 -0.6875 9.175781 -1.054688 8.875 -1.515625 C 8.570312 -1.972656 8.351562 -2.472656 8.21875 -3.015625 C 8.082031 -3.554688 7.976562 -4.097656 7.90625 -4.640625 C 7.84375 -5.191406 7.738281 -5.691406 7.59375 -6.140625 C 7.457031 -6.597656 7.226562 -6.96875 6.90625 -7.25 C 6.582031 -7.53125 6.101562 -7.671875 5.46875 -7.671875 C 4.457031 -7.671875 3.644531 -8.144531 3.03125 -9.09375 C 2.6875 -9.644531 2.429688 -10.328125 2.265625 -11.140625 L 2.265625 0 L 0.6875 0 L 0.6875 -14.046875 L 4.1875 -14.046875 C 5.164062 -14.046875 6.054688 -13.9375 6.859375 -13.71875 C 7.660156 -13.507812 8.300781 -13.175781 8.78125 -12.71875 C 9.269531 -12.257812 9.515625 -11.65625 9.515625 -10.90625 C 9.515625 -10.25 9.367188 -9.695312 9.078125 -9.25 C 8.785156 -8.8125 8.394531 -8.46875 7.90625 -8.21875 C 7.425781 -7.976562 6.894531 -7.820312 6.3125 -7.75 Z M 7.9375 -10.90625 C 7.9375 -11.65625 7.757812 -12.25 7.40625 -12.6875 C 7.050781 -13.125 6.585938 -13.429688 6.015625 -13.609375 C 5.441406 -13.785156 4.832031 -13.875 4.1875 -13.875 L 2.265625 -13.875 L 2.265625 -12.65625 C 2.265625 -11.925781 2.347656 -11.273438 2.515625 -10.703125 C 2.679688 -10.128906 2.898438 -9.625 3.171875 -9.1875 C 3.453125 -8.78125 3.789062 -8.445312 4.1875 -8.1875 C 4.582031 -7.9375 5.007812 -7.8125 5.46875 -7.8125 L 5.59375 -7.8125 C 6.226562 -7.84375 6.773438 -8.101562 7.234375 -8.59375 C 7.703125 -9.082031 7.9375 -9.851562 7.9375 -10.90625 Z M 7.9375 -10.90625 "/></g></g></g><g fill="#9f3730" fill-opacity="1"><g transform="translate(102.821784, 60.967253)"><g><path d="M 0.6875 0 L 0.6875 -14.015625 L 2.1875 -14.015625 L 2.1875 0 Z M 0.6875 0 "/></g></g></g><g fill="#9f3730" fill-opacity="1"><g transform="translate(105.702156, 60.967253)"><g><path d="M 12.515625 -14.046875 L 12.703125 -14.046875 L 11.671875 -11.625 L 6.765625 0 L 6.609375 0 L 0.6875 -14.046875 L 2.328125 -14.046875 L 7.421875 -1.984375 L 8.203125 -3.875 Z M 12.515625 -14.046875 "/></g></g></g><g fill="#9f3730" fill-opacity="1"><g transform="translate(119.110785, 60.967253)"><g><path d="M 5.40625 -7.625 C 4.988281 -7.625 4.640625 -7.535156 4.359375 -7.359375 C 4.085938 -7.179688 3.867188 -6.976562 3.703125 -6.75 C 3.546875 -6.53125 3.4375 -6.351562 3.375 -6.21875 C 3 -5.363281 2.707031 -4.4375 2.5 -3.4375 C 2.300781 -2.445312 2.203125 -1.300781 2.203125 0 L 0.6875 0 L 0.6875 -14.015625 L 2.203125 -14.015625 L 2.203125 -2.546875 C 2.359375 -3.773438 2.625 -4.863281 3 -5.8125 C 3.375 -6.757812 3.835938 -7.640625 4.390625 -8.453125 C 4.941406 -9.265625 5.570312 -10.085938 6.28125 -10.921875 C 6.28125 -10.921875 6.34375 -11.003906 6.46875 -11.171875 C 6.601562 -11.335938 6.753906 -11.546875 6.921875 -11.796875 C 7.097656 -12.046875 7.253906 -12.3125 7.390625 -12.59375 C 7.523438 -12.882812 7.59375 -13.15625 7.59375 -13.40625 C 7.601562 -13.664062 7.5 -13.867188 7.28125 -14.015625 L 10.578125 -14.015625 C 10.234375 -13.953125 9.882812 -13.820312 9.53125 -13.625 C 9.1875 -13.425781 8.867188 -13.210938 8.578125 -12.984375 C 8.285156 -12.765625 8.050781 -12.570312 7.875 -12.40625 C 7.695312 -12.25 7.601562 -12.171875 7.59375 -12.171875 C 6.820312 -11.285156 6.113281 -10.441406 5.46875 -9.640625 C 4.832031 -8.847656 4.273438 -8.003906 3.796875 -7.109375 C 3.960938 -7.285156 4.175781 -7.441406 4.4375 -7.578125 C 4.707031 -7.710938 5.03125 -7.78125 5.40625 -7.78125 C 6.101562 -7.78125 6.679688 -7.648438 7.140625 -7.390625 C 7.609375 -7.140625 8 -6.800781 8.3125 -6.375 C 8.625 -5.945312 8.894531 -5.472656 9.125 -4.953125 C 9.351562 -4.441406 9.582031 -3.929688 9.8125 -3.421875 C 10.070312 -2.835938 10.332031 -2.296875 10.59375 -1.796875 C 10.851562 -1.296875 11.144531 -0.894531 11.46875 -0.59375 C 11.800781 -0.300781 12.203125 -0.15625 12.671875 -0.15625 L 12.671875 0 C 11.640625 0 10.820312 -0.132812 10.21875 -0.40625 C 9.613281 -0.6875 9.15625 -1.050781 8.84375 -1.5 C 8.53125 -1.957031 8.3125 -2.457031 8.1875 -3 C 8.0625 -3.539062 7.957031 -4.082031 7.875 -4.625 C 7.800781 -5.164062 7.691406 -5.660156 7.546875 -6.109375 C 7.410156 -6.566406 7.179688 -6.929688 6.859375 -7.203125 C 6.535156 -7.484375 6.050781 -7.625 5.40625 -7.625 Z M 5.40625 -7.625 "/></g></g></g><g fill="#9f3730" fill-opacity="1"><g transform="translate(132.479683, 60.967253)"><g><path d="M 0.6875 0 L 0.6875 -14.015625 L 2.1875 -14.015625 L 2.1875 0 Z M 0.6875 0 "/></g></g></g><g fill="#9f3730" fill-opacity="1"><g transform="translate(135.360055, 60.967253)"><g><path d="M 0.6875 -14.015625 L 2.1875 -14.015625 C 3.269531 -14.015625 4.226562 -13.644531 5.0625 -12.90625 C 5.90625 -12.175781 6.613281 -11.238281 7.1875 -10.09375 C 7.769531 -9 8.234375 -7.800781 8.578125 -6.5 C 8.921875 -5.195312 9.164062 -3.90625 9.3125 -2.625 L 9.3125 -14.015625 L 10.796875 -14.015625 L 10.796875 0 L 9.3125 0 C 9.3125 -1.0625 9.226562 -2.179688 9.0625 -3.359375 C 8.894531 -4.535156 8.648438 -5.695312 8.328125 -6.84375 C 8.003906 -8 7.597656 -9.054688 7.109375 -10.015625 C 6.515625 -11.148438 5.8125 -12.078125 5 -12.796875 C 4.195312 -13.515625 3.257812 -13.875 2.1875 -13.875 L 2.1875 0 L 0.6875 0 Z M 0.6875 -14.015625 "/></g></g></g><g fill="#9f3730" fill-opacity="1"><g transform="translate(146.861679, 60.967253)"><g><path d="M 10.34375 0 L 8.109375 -5.375 C 7.253906 -5.300781 6.550781 -5.128906 6 -4.859375 C 5.457031 -4.597656 5.015625 -4.28125 4.671875 -3.90625 C 4.335938 -3.53125 4.066406 -3.132812 3.859375 -2.71875 C 3.660156 -2.3125 3.476562 -1.925781 3.3125 -1.5625 C 3.125 -1.070312 2.921875 -0.664062 2.703125 -0.34375 C 2.492188 -0.0195312 2.160156 0.132812 1.703125 0.125 C 1.648438 0.101562 1.597656 0.0859375 1.546875 0.078125 C 1.503906 0.0664062 1.453125 0.0351562 1.390625 -0.015625 C 0.847656 -0.253906 0.628906 -0.832031 0.734375 -1.75 C 0.785156 -2.1875 0.878906 -2.675781 1.015625 -3.21875 C 1.160156 -3.769531 1.351562 -4.363281 1.59375 -5 C 1.945312 -5.957031 2.363281 -6.96875 2.84375 -8.03125 C 3.332031 -9.09375 3.84375 -10.144531 4.375 -11.1875 C 4.914062 -12.226562 5.4375 -13.171875 5.9375 -14.015625 L 6.078125 -14.015625 L 12.015625 0 Z M 8.046875 -5.515625 L 5.125 -12.3125 C 4.507812 -11.144531 3.894531 -9.914062 3.28125 -8.625 C 2.664062 -7.332031 2.148438 -6.113281 1.734375 -4.96875 C 1.492188 -4.332031 1.300781 -3.742188 1.15625 -3.203125 C 1.019531 -2.660156 0.925781 -2.175781 0.875 -1.75 C 0.863281 -1.332031 0.894531 -0.984375 0.96875 -0.703125 C 1.050781 -0.421875 1.210938 -0.238281 1.453125 -0.15625 C 1.515625 -0.144531 1.5625 -0.128906 1.59375 -0.109375 C 1.625 -0.0976562 1.671875 -0.0820312 1.734375 -0.0625 C 2.128906 -0.03125 2.425781 -0.164062 2.625 -0.46875 C 2.820312 -0.78125 3 -1.160156 3.15625 -1.609375 C 3.3125 -1.984375 3.492188 -2.378906 3.703125 -2.796875 C 3.921875 -3.210938 4.203125 -3.609375 4.546875 -3.984375 C 4.898438 -4.367188 5.351562 -4.703125 5.90625 -4.984375 C 6.46875 -5.265625 7.179688 -5.441406 8.046875 -5.515625 Z M 8.046875 -5.515625 "/></g></g></g><g fill="#1d0d08" fill-opacity="1"><g transform="translate(42.277235, 73.975015)"><g><path d="M 3.84375 0 L 3.375 0 L 2.9375 -1.140625 L 0.921875 -1.140625 L 0.484375 0 L 0.03125 0 L 1.734375 -4.46875 L 2.140625 -4.46875 Z M 2.78125 -1.546875 L 1.9375 -3.828125 L 1.078125 -1.546875 Z M 2.78125 -1.546875 "/></g></g></g><g fill="#1d0d08" fill-opacity="1"><g transform="translate(46.154125, 73.975015)"><g><path d="M 0.453125 0 L 0.453125 -3.1875 L 0.765625 -3.1875 L 0.875 -2.765625 L 0.90625 -2.765625 C 0.988281 -2.890625 1.113281 -3.003906 1.28125 -3.109375 C 1.445312 -3.210938 1.632812 -3.265625 1.84375 -3.265625 C 2.082031 -3.265625 2.296875 -3.207031 2.484375 -3.09375 C 2.679688 -2.976562 2.835938 -2.8125 2.953125 -2.59375 C 3.066406 -2.382812 3.125 -2.140625 3.125 -1.859375 L 3.125 0 L 2.703125 0 L 2.703125 -1.859375 C 2.703125 -2.171875 2.617188 -2.414062 2.453125 -2.59375 C 2.285156 -2.78125 2.070312 -2.875 1.8125 -2.875 C 1.53125 -2.875 1.300781 -2.78125 1.125 -2.59375 C 0.957031 -2.414062 0.875 -2.171875 0.875 -1.859375 L 0.875 0 Z M 0.453125 0 "/></g></g></g><g fill="#1d0d08" fill-opacity="1"><g transform="translate(49.698893, 73.975015)"><g><path d="M 1.578125 -4.140625 C 1.410156 -4.140625 1.28125 -4.085938 1.1875 -3.984375 C 1.09375 -3.878906 1.046875 -3.722656 1.046875 -3.515625 L 1.046875 -3.1875 L 1.796875 -3.1875 L 1.796875 -2.8125 L 1.046875 -2.8125 L 1.046875 0 L 0.640625 0 L 0.640625 -2.8125 L 0.171875 -2.8125 L 0.171875 -3.1875 L 0.640625 -3.1875 L 0.640625 -3.515625 C 0.640625 -3.828125 0.722656 -4.070312 0.890625 -4.25 C 1.054688 -4.4375 1.265625 -4.53125 1.515625 -4.53125 C 1.609375 -4.53125 1.703125 -4.515625 1.796875 -4.484375 L 1.796875 -4.109375 C 1.722656 -4.128906 1.648438 -4.140625 1.578125 -4.140625 Z M 1.578125 -4.140625 "/></g></g></g><g fill="#1d0d08" fill-opacity="1"><g transform="translate(51.576663, 73.975015)"><g><path d="M 3.1875 -1.6875 C 3.1875 -1.5625 3.175781 -1.460938 3.15625 -1.390625 L 0.671875 -1.390625 C 0.710938 -1.066406 0.832031 -0.804688 1.03125 -0.609375 C 1.226562 -0.421875 1.472656 -0.328125 1.765625 -0.328125 C 2.160156 -0.328125 2.457031 -0.492188 2.65625 -0.828125 L 3.0625 -0.828125 C 2.96875 -0.566406 2.800781 -0.351562 2.5625 -0.1875 C 2.320312 -0.0195312 2.050781 0.0625 1.75 0.0625 C 1.46875 0.0625 1.210938 -0.00390625 0.984375 -0.140625 C 0.753906 -0.285156 0.570312 -0.484375 0.4375 -0.734375 C 0.3125 -0.984375 0.25 -1.269531 0.25 -1.59375 C 0.25 -1.914062 0.316406 -2.203125 0.453125 -2.453125 C 0.585938 -2.703125 0.769531 -2.898438 1 -3.046875 C 1.226562 -3.191406 1.476562 -3.265625 1.75 -3.265625 C 2.019531 -3.265625 2.265625 -3.191406 2.484375 -3.046875 C 2.703125 -2.910156 2.875 -2.722656 3 -2.484375 C 3.125 -2.242188 3.1875 -1.976562 3.1875 -1.6875 Z M 1.75 -2.875 C 1.570312 -2.875 1.40625 -2.828125 1.25 -2.734375 C 1.09375 -2.640625 0.960938 -2.507812 0.859375 -2.34375 C 0.753906 -2.175781 0.691406 -1.984375 0.671875 -1.765625 L 2.765625 -1.765625 C 2.742188 -2.085938 2.640625 -2.351562 2.453125 -2.5625 C 2.265625 -2.769531 2.03125 -2.875 1.75 -2.875 Z M 1.75 -2.875 "/></g></g></g><g fill="#1d0d08" fill-opacity="1"><g transform="translate(55.006464, 73.975015)"><g><path d="M 0.453125 0 L 0.453125 -3.1875 L 0.765625 -3.1875 L 0.875 -2.765625 L 0.90625 -2.765625 C 0.988281 -2.890625 1.109375 -3.003906 1.265625 -3.109375 C 1.421875 -3.210938 1.585938 -3.265625 1.765625 -3.265625 C 1.867188 -3.265625 1.945312 -3.253906 2 -3.234375 L 2 -2.8125 C 1.925781 -2.832031 1.851562 -2.84375 1.78125 -2.84375 C 1.507812 -2.84375 1.289062 -2.75 1.125 -2.5625 C 0.957031 -2.382812 0.875 -2.140625 0.875 -1.828125 L 0.875 0 Z M 0.453125 0 "/></g></g></g><g fill="#1d0d08" fill-opacity="1"><g transform="translate(57.056684, 73.975015)"><g><path d="M 1.546875 0.0625 C 1.285156 0.0625 1.070312 -0.0234375 0.90625 -0.203125 C 0.75 -0.390625 0.671875 -0.640625 0.671875 -0.953125 L 0.671875 -2.8125 L 0.09375 -2.8125 L 0.09375 -3.1875 L 0.34375 -3.1875 C 0.601562 -3.1875 0.734375 -3.316406 0.734375 -3.578125 L 0.734375 -4.046875 L 1.078125 -4.046875 L 1.078125 -3.1875 L 1.828125 -3.1875 L 1.828125 -2.8125 L 1.078125 -2.8125 L 1.078125 -0.953125 C 1.078125 -0.742188 1.125 -0.585938 1.21875 -0.484375 C 1.3125 -0.378906 1.441406 -0.328125 1.609375 -0.328125 C 1.679688 -0.328125 1.753906 -0.335938 1.828125 -0.359375 L 1.828125 0.015625 C 1.734375 0.046875 1.640625 0.0625 1.546875 0.0625 Z M 1.546875 0.0625 "/></g></g></g><g fill="#1d0d08" fill-opacity="1"><g transform="translate(59.100515, 73.975015)"><g><path d="M 0.875 0 L 0.453125 0 L 0.453125 -3.1875 L 0.875 -3.1875 Z M 0.671875 -3.703125 C 0.597656 -3.703125 0.53125 -3.726562 0.46875 -3.78125 C 0.414062 -3.84375 0.390625 -3.914062 0.390625 -4 C 0.390625 -4.082031 0.414062 -4.148438 0.46875 -4.203125 C 0.53125 -4.253906 0.597656 -4.28125 0.671875 -4.28125 C 0.765625 -4.28125 0.835938 -4.253906 0.890625 -4.203125 C 0.941406 -4.148438 0.96875 -4.082031 0.96875 -4 C 0.96875 -3.914062 0.9375 -3.84375 0.875 -3.78125 C 0.820312 -3.726562 0.753906 -3.703125 0.671875 -3.703125 Z M 0.671875 -3.703125 "/></g></g></g><g fill="#1d0d08" fill-opacity="1"><g transform="translate(60.435391, 73.975015)"><g><path d="M 1.75 1.21875 C 1.40625 1.21875 1.109375 1.128906 0.859375 0.953125 C 0.617188 0.773438 0.460938 0.539062 0.390625 0.25 L 0.8125 0.25 C 0.863281 0.425781 0.972656 0.566406 1.140625 0.671875 C 1.304688 0.773438 1.507812 0.828125 1.75 0.828125 C 2.03125 0.828125 2.257812 0.738281 2.4375 0.5625 C 2.613281 0.394531 2.703125 0.171875 2.703125 -0.109375 L 2.703125 -0.609375 L 2.671875 -0.609375 C 2.628906 -0.554688 2.5625 -0.488281 2.46875 -0.40625 C 2.375 -0.320312 2.257812 -0.25 2.125 -0.1875 C 1.988281 -0.132812 1.84375 -0.109375 1.6875 -0.109375 C 1.425781 -0.109375 1.179688 -0.175781 0.953125 -0.3125 C 0.734375 -0.445312 0.5625 -0.632812 0.4375 -0.875 C 0.3125 -1.113281 0.25 -1.382812 0.25 -1.6875 C 0.25 -1.976562 0.3125 -2.242188 0.4375 -2.484375 C 0.5625 -2.722656 0.734375 -2.910156 0.953125 -3.046875 C 1.179688 -3.191406 1.425781 -3.265625 1.6875 -3.265625 C 1.84375 -3.265625 1.988281 -3.234375 2.125 -3.171875 C 2.257812 -3.117188 2.375 -3.050781 2.46875 -2.96875 C 2.5625 -2.882812 2.628906 -2.816406 2.671875 -2.765625 L 2.703125 -2.765625 L 2.8125 -3.1875 L 3.109375 -3.1875 L 3.109375 -0.109375 C 3.109375 0.148438 3.050781 0.378906 2.9375 0.578125 C 2.820312 0.773438 2.660156 0.929688 2.453125 1.046875 C 2.242188 1.160156 2.007812 1.21875 1.75 1.21875 Z M 1.6875 -0.5 C 1.863281 -0.5 2.03125 -0.550781 2.1875 -0.65625 C 2.34375 -0.757812 2.46875 -0.898438 2.5625 -1.078125 C 2.65625 -1.253906 2.703125 -1.457031 2.703125 -1.6875 C 2.703125 -1.90625 2.65625 -2.101562 2.5625 -2.28125 C 2.46875 -2.46875 2.34375 -2.613281 2.1875 -2.71875 C 2.03125 -2.820312 1.863281 -2.875 1.6875 -2.875 C 1.5 -2.875 1.328125 -2.820312 1.171875 -2.71875 C 1.015625 -2.613281 0.890625 -2.46875 0.796875 -2.28125 C 0.710938 -2.101562 0.671875 -1.90625 0.671875 -1.6875 C 0.671875 -1.457031 0.710938 -1.253906 0.796875 -1.078125 C 0.890625 -0.898438 1.015625 -0.757812 1.171875 -0.65625 C 1.328125 -0.550781 1.5 -0.5 1.6875 -0.5 Z M 1.6875 -0.5 "/></g></g></g><g fill="#1d0d08" fill-opacity="1"><g transform="translate(64.005709, 73.975015)"><g><path d="M 1.703125 0.0625 C 1.460938 0.0625 1.242188 0.00390625 1.046875 -0.109375 C 0.859375 -0.222656 0.707031 -0.382812 0.59375 -0.59375 C 0.476562 -0.8125 0.421875 -1.0625 0.421875 -1.34375 L 0.421875 -3.1875 L 0.84375 -3.1875 L 0.84375 -1.34375 C 0.84375 -1.03125 0.925781 -0.78125 1.09375 -0.59375 C 1.257812 -0.414062 1.472656 -0.328125 1.734375 -0.328125 C 2.015625 -0.328125 2.238281 -0.414062 2.40625 -0.59375 C 2.582031 -0.78125 2.671875 -1.03125 2.671875 -1.34375 L 2.671875 -3.1875 L 3.09375 -3.1875 L 3.09375 0 L 2.78125 0 L 2.671875 -0.4375 L 2.640625 -0.4375 C 2.554688 -0.300781 2.429688 -0.179688 2.265625 -0.078125 C 2.097656 0.015625 1.910156 0.0625 1.703125 0.0625 Z M 1.703125 0.0625 "/></g></g></g><g fill="#1d0d08" fill-opacity="1"><g transform="translate(67.550478, 73.975015)"><g><path d="M 0.453125 0 L 0.453125 -3.1875 L 0.765625 -3.1875 L 0.875 -2.765625 L 0.90625 -2.765625 C 0.988281 -2.890625 1.113281 -3.003906 1.28125 -3.109375 C 1.445312 -3.210938 1.632812 -3.265625 1.84375 -3.265625 C 2.082031 -3.265625 2.296875 -3.207031 2.484375 -3.09375 C 2.679688 -2.976562 2.835938 -2.8125 2.953125 -2.59375 C 3.066406 -2.382812 3.125 -2.140625 3.125 -1.859375 L 3.125 0 L 2.703125 0 L 2.703125 -1.859375 C 2.703125 -2.171875 2.617188 -2.414062 2.453125 -2.59375 C 2.285156 -2.78125 2.070312 -2.875 1.8125 -2.875 C 1.53125 -2.875 1.300781 -2.78125 1.125 -2.59375 C 0.957031 -2.414062 0.875 -2.171875 0.875 -1.859375 L 0.875 0 Z M 0.453125 0 "/></g></g></g><g fill="#1d0d08" fill-opacity="1"><g transform="translate(71.095246, 73.975015)"><g><path d="M 1.75 1.21875 C 1.40625 1.21875 1.109375 1.128906 0.859375 0.953125 C 0.617188 0.773438 0.460938 0.539062 0.390625 0.25 L 0.8125 0.25 C 0.863281 0.425781 0.972656 0.566406 1.140625 0.671875 C 1.304688 0.773438 1.507812 0.828125 1.75 0.828125 C 2.03125 0.828125 2.257812 0.738281 2.4375 0.5625 C 2.613281 0.394531 2.703125 0.171875 2.703125 -0.109375 L 2.703125 -0.609375 L 2.671875 -0.609375 C 2.628906 -0.554688 2.5625 -0.488281 2.46875 -0.40625 C 2.375 -0.320312 2.257812 -0.25 2.125 -0.1875 C 1.988281 -0.132812 1.84375 -0.109375 1.6875 -0.109375 C 1.425781 -0.109375 1.179688 -0.175781 0.953125 -0.3125 C 0.734375 -0.445312 0.5625 -0.632812 0.4375 -0.875 C 0.3125 -1.113281 0.25 -1.382812 0.25 -1.6875 C 0.25 -1.976562 0.3125 -2.242188 0.4375 -2.484375 C 0.5625 -2.722656 0.734375 -2.910156 0.953125 -3.046875 C 1.179688 -3.191406 1.425781 -3.265625 1.6875 -3.265625 C 1.84375 -3.265625 1.988281 -3.234375 2.125 -3.171875 C 2.257812 -3.117188 2.375 -3.050781 2.46875 -2.96875 C 2.5625 -2.882812 2.628906 -2.816406 2.671875 -2.765625 L 2.703125 -2.765625 L 2.8125 -3.1875 L 3.109375 -3.1875 L 3.109375 -0.109375 C 3.109375 0.148438 3.050781 0.378906 2.9375 0.578125 C 2.820312 0.773438 2.660156 0.929688 2.453125 1.046875 C 2.242188 1.160156 2.007812 1.21875 1.75 1.21875 Z M 1.6875 -0.5 C 1.863281 -0.5 2.03125 -0.550781 2.1875 -0.65625 C 2.34375 -0.757812 2.46875 -0.898438 2.5625 -1.078125 C 2.65625 -1.253906 2.703125 -1.457031 2.703125 -1.6875 C 2.703125 -1.90625 2.65625 -2.101562 2.5625 -2.28125 C 2.46875 -2.46875 2.34375 -2.613281 2.1875 -2.71875 C 2.03125 -2.820312 1.863281 -2.875 1.6875 -2.875 C 1.5 -2.875 1.328125 -2.820312 1.171875 -2.71875 C 1.015625 -2.613281 0.890625 -2.46875 0.796875 -2.28125 C 0.710938 -2.101562 0.671875 -1.90625 0.671875 -1.6875 C 0.671875 -1.457031 0.710938 -1.253906 0.796875 -1.078125 C 0.890625 -0.898438 1.015625 -0.757812 1.171875 -0.65625 C 1.328125 -0.550781 1.5 -0.5 1.6875 -0.5 Z M 1.6875 -0.5 "/></g></g></g><g fill="#1d0d08" fill-opacity="1"><g transform="translate(74.665564, 73.975015)"><g/></g></g><g fill="#1d0d08" fill-opacity="1"><g transform="translate(76.185662, 73.975015)"><g><path d="M 0.484375 0 L 0.484375 -4.46875 L 0.90625 -4.46875 L 0.90625 -2.765625 L 0.9375 -2.765625 C 1.019531 -2.890625 1.144531 -3.003906 1.3125 -3.109375 C 1.476562 -3.210938 1.664062 -3.265625 1.875 -3.265625 C 2.113281 -3.265625 2.328125 -3.207031 2.515625 -3.09375 C 2.710938 -2.976562 2.867188 -2.8125 2.984375 -2.59375 C 3.097656 -2.382812 3.15625 -2.140625 3.15625 -1.859375 L 3.15625 0 L 2.734375 0 L 2.734375 -1.859375 C 2.734375 -2.171875 2.648438 -2.414062 2.484375 -2.59375 C 2.316406 -2.78125 2.101562 -2.875 1.84375 -2.875 C 1.5625 -2.875 1.332031 -2.78125 1.15625 -2.59375 C 0.988281 -2.414062 0.90625 -2.171875 0.90625 -1.859375 L 0.90625 0 Z M 0.484375 0 "/></g></g></g><g fill="#1d0d08" fill-opacity="1"><g transform="translate(79.762369, 73.975015)"><g><path d="M 1.75 0.0625 C 1.476562 0.0625 1.226562 -0.00390625 1 -0.140625 C 0.769531 -0.285156 0.585938 -0.484375 0.453125 -0.734375 C 0.316406 -0.992188 0.25 -1.28125 0.25 -1.59375 C 0.25 -1.914062 0.316406 -2.203125 0.453125 -2.453125 C 0.585938 -2.703125 0.769531 -2.898438 1 -3.046875 C 1.226562 -3.191406 1.476562 -3.265625 1.75 -3.265625 C 2.019531 -3.265625 2.269531 -3.191406 2.5 -3.046875 C 2.726562 -2.898438 2.910156 -2.703125 3.046875 -2.453125 C 3.179688 -2.203125 3.25 -1.914062 3.25 -1.59375 C 3.25 -1.28125 3.179688 -0.992188 3.046875 -0.734375 C 2.910156 -0.484375 2.726562 -0.285156 2.5 -0.140625 C 2.269531 -0.00390625 2.019531 0.0625 1.75 0.0625 Z M 1.75 -0.328125 C 1.945312 -0.328125 2.128906 -0.378906 2.296875 -0.484375 C 2.460938 -0.585938 2.59375 -0.738281 2.6875 -0.9375 C 2.789062 -1.132812 2.84375 -1.351562 2.84375 -1.59375 C 2.84375 -1.84375 2.789062 -2.0625 2.6875 -2.25 C 2.59375 -2.445312 2.460938 -2.597656 2.296875 -2.703125 C 2.128906 -2.816406 1.945312 -2.875 1.75 -2.875 C 1.550781 -2.875 1.367188 -2.816406 1.203125 -2.703125 C 1.035156 -2.597656 0.90625 -2.445312 0.8125 -2.25 C 0.71875 -2.0625 0.671875 -1.84375 0.671875 -1.59375 C 0.671875 -1.351562 0.71875 -1.132812 0.8125 -0.9375 C 0.90625 -0.738281 1.035156 -0.585938 1.203125 -0.484375 C 1.367188 -0.378906 1.550781 -0.328125 1.75 -0.328125 Z M 1.75 -0.328125 "/></g></g></g><g fill="#1d0d08" fill-opacity="1"><g transform="translate(83.262431, 73.975015)"><g><path d="M 1.75 0.0625 C 1.476562 0.0625 1.226562 -0.00390625 1 -0.140625 C 0.769531 -0.285156 0.585938 -0.484375 0.453125 -0.734375 C 0.316406 -0.992188 0.25 -1.28125 0.25 -1.59375 C 0.25 -1.914062 0.316406 -2.203125 0.453125 -2.453125 C 0.585938 -2.703125 0.769531 -2.898438 1 -3.046875 C 1.226562 -3.191406 1.476562 -3.265625 1.75 -3.265625 C 1.988281 -3.265625 2.207031 -3.207031 2.40625 -3.09375 C 2.601562 -2.988281 2.765625 -2.84375 2.890625 -2.65625 C 3.015625 -2.476562 3.097656 -2.28125 3.140625 -2.0625 L 2.734375 -2.0625 C 2.660156 -2.3125 2.539062 -2.507812 2.375 -2.65625 C 2.207031 -2.800781 2 -2.875 1.75 -2.875 C 1.550781 -2.875 1.367188 -2.816406 1.203125 -2.703125 C 1.035156 -2.597656 0.90625 -2.445312 0.8125 -2.25 C 0.71875 -2.0625 0.671875 -1.84375 0.671875 -1.59375 C 0.671875 -1.351562 0.71875 -1.132812 0.8125 -0.9375 C 0.90625 -0.738281 1.035156 -0.585938 1.203125 -0.484375 C 1.367188 -0.378906 1.550781 -0.328125 1.75 -0.328125 C 2 -0.328125 2.207031 -0.394531 2.375 -0.53125 C 2.539062 -0.675781 2.660156 -0.875 2.734375 -1.125 L 3.140625 -1.125 C 3.097656 -0.914062 3.015625 -0.71875 2.890625 -0.53125 C 2.765625 -0.351562 2.601562 -0.207031 2.40625 -0.09375 C 2.207031 0.0078125 1.988281 0.0625 1.75 0.0625 Z M 1.75 0.0625 "/></g></g></g><g fill="#1d0d08" fill-opacity="1"><g transform="translate(86.621978, 73.975015)"><g><path d="M 0.484375 0 L 0.484375 -4.46875 L 0.90625 -4.46875 L 0.90625 -2.765625 L 0.9375 -2.765625 C 1.019531 -2.890625 1.144531 -3.003906 1.3125 -3.109375 C 1.476562 -3.210938 1.664062 -3.265625 1.875 -3.265625 C 2.113281 -3.265625 2.328125 -3.207031 2.515625 -3.09375 C 2.710938 -2.976562 2.867188 -2.8125 2.984375 -2.59375 C 3.097656 -2.382812 3.15625 -2.140625 3.15625 -1.859375 L 3.15625 0 L 2.734375 0 L 2.734375 -1.859375 C 2.734375 -2.171875 2.648438 -2.414062 2.484375 -2.59375 C 2.316406 -2.78125 2.101562 -2.875 1.84375 -2.875 C 1.5625 -2.875 1.332031 -2.78125 1.15625 -2.59375 C 0.988281 -2.414062 0.90625 -2.171875 0.90625 -1.859375 L 0.90625 0 Z M 0.484375 0 "/></g></g></g><g fill="#1d0d08" fill-opacity="1"><g transform="translate(90.198684, 73.975015)"><g><path d="M 3.078125 -0.75 L 3.859375 -3.1875 L 4.28125 -3.1875 L 3.21875 0 L 2.921875 0 L 2.15625 -2.4375 L 1.40625 0 L 1.109375 0 L 0.046875 -3.1875 L 0.484375 -3.1875 L 1.265625 -0.75 L 2.03125 -3.1875 L 2.3125 -3.1875 Z M 3.078125 -0.75 "/></g></g></g><g fill="#1d0d08" fill-opacity="1"><g transform="translate(94.529052, 73.975015)"><g><path d="M 3.1875 -1.6875 C 3.1875 -1.5625 3.175781 -1.460938 3.15625 -1.390625 L 0.671875 -1.390625 C 0.710938 -1.066406 0.832031 -0.804688 1.03125 -0.609375 C 1.226562 -0.421875 1.472656 -0.328125 1.765625 -0.328125 C 2.160156 -0.328125 2.457031 -0.492188 2.65625 -0.828125 L 3.0625 -0.828125 C 2.96875 -0.566406 2.800781 -0.351562 2.5625 -0.1875 C 2.320312 -0.0195312 2.050781 0.0625 1.75 0.0625 C 1.46875 0.0625 1.210938 -0.00390625 0.984375 -0.140625 C 0.753906 -0.285156 0.570312 -0.484375 0.4375 -0.734375 C 0.3125 -0.984375 0.25 -1.269531 0.25 -1.59375 C 0.25 -1.914062 0.316406 -2.203125 0.453125 -2.453125 C 0.585938 -2.703125 0.769531 -2.898438 1 -3.046875 C 1.226562 -3.191406 1.476562 -3.265625 1.75 -3.265625 C 2.019531 -3.265625 2.265625 -3.191406 2.484375 -3.046875 C 2.703125 -2.910156 2.875 -2.722656 3 -2.484375 C 3.125 -2.242188 3.1875 -1.976562 3.1875 -1.6875 Z M 1.75 -2.875 C 1.570312 -2.875 1.40625 -2.828125 1.25 -2.734375 C 1.09375 -2.640625 0.960938 -2.507812 0.859375 -2.34375 C 0.753906 -2.175781 0.691406 -1.984375 0.671875 -1.765625 L 2.765625 -1.765625 C 2.742188 -2.085938 2.640625 -2.351562 2.453125 -2.5625 C 2.265625 -2.769531 2.03125 -2.875 1.75 -2.875 Z M 1.75 -2.875 "/></g></g></g><g fill="#1d0d08" fill-opacity="1"><g transform="translate(97.958853, 73.975015)"><g><path d="M 0.453125 0 L 0.453125 -3.1875 L 0.765625 -3.1875 L 0.875 -2.765625 L 0.90625 -2.765625 C 0.988281 -2.890625 1.109375 -3.003906 1.265625 -3.109375 C 1.421875 -3.210938 1.585938 -3.265625 1.765625 -3.265625 C 1.867188 -3.265625 1.945312 -3.253906 2 -3.234375 L 2 -2.8125 C 1.925781 -2.832031 1.851562 -2.84375 1.78125 -2.84375 C 1.507812 -2.84375 1.289062 -2.75 1.125 -2.5625 C 0.957031 -2.382812 0.875 -2.140625 0.875 -1.828125 L 0.875 0 Z M 0.453125 0 "/></g></g></g><g fill="#1d0d08" fill-opacity="1"><g transform="translate(100.009073, 73.975015)"><g><path d="M 1.546875 0.0625 C 1.285156 0.0625 1.070312 -0.0234375 0.90625 -0.203125 C 0.75 -0.390625 0.671875 -0.640625 0.671875 -0.953125 L 0.671875 -2.8125 L 0.09375 -2.8125 L 0.09375 -3.1875 L 0.34375 -3.1875 C 0.601562 -3.1875 0.734375 -3.316406 0.734375 -3.578125 L 0.734375 -4.046875 L 1.078125 -4.046875 L 1.078125 -3.1875 L 1.828125 -3.1875 L 1.828125 -2.8125 L 1.078125 -2.8125 L 1.078125 -0.953125 C 1.078125 -0.742188 1.125 -0.585938 1.21875 -0.484375 C 1.3125 -0.378906 1.441406 -0.328125 1.609375 -0.328125 C 1.679688 -0.328125 1.753906 -0.335938 1.828125 -0.359375 L 1.828125 0.015625 C 1.734375 0.046875 1.640625 0.0625 1.546875 0.0625 Z M 1.546875 0.0625 "/></g></g></g><g fill="#1d0d08" fill-opacity="1"><g transform="translate(102.052904, 73.975015)"><g><path d="M 0.875 0 L 0.453125 0 L 0.453125 -3.1875 L 0.875 -3.1875 Z M 0.671875 -3.703125 C 0.597656 -3.703125 0.53125 -3.726562 0.46875 -3.78125 C 0.414062 -3.84375 0.390625 -3.914062 0.390625 -4 C 0.390625 -4.082031 0.414062 -4.148438 0.46875 -4.203125 C 0.53125 -4.253906 0.597656 -4.28125 0.671875 -4.28125 C 0.765625 -4.28125 0.835938 -4.253906 0.890625 -4.203125 C 0.941406 -4.148438 0.96875 -4.082031 0.96875 -4 C 0.96875 -3.914062 0.9375 -3.84375 0.875 -3.78125 C 0.820312 -3.726562 0.753906 -3.703125 0.671875 -3.703125 Z M 0.671875 -3.703125 "/></g></g></g><g fill="#1d0d08" fill-opacity="1"><g transform="translate(103.38778, 73.975015)"><g><path d="M 1.75 1.21875 C 1.40625 1.21875 1.109375 1.128906 0.859375 0.953125 C 0.617188 0.773438 0.460938 0.539062 0.390625 0.25 L 0.8125 0.25 C 0.863281 0.425781 0.972656 0.566406 1.140625 0.671875 C 1.304688 0.773438 1.507812 0.828125 1.75 0.828125 C 2.03125 0.828125 2.257812 0.738281 2.4375 0.5625 C 2.613281 0.394531 2.703125 0.171875 2.703125 -0.109375 L 2.703125 -0.609375 L 2.671875 -0.609375 C 2.628906 -0.554688 2.5625 -0.488281 2.46875 -0.40625 C 2.375 -0.320312 2.257812 -0.25 2.125 -0.1875 C 1.988281 -0.132812 1.84375 -0.109375 1.6875 -0.109375 C 1.425781 -0.109375 1.179688 -0.175781 0.953125 -0.3125 C 0.734375 -0.445312 0.5625 -0.632812 0.4375 -0.875 C 0.3125 -1.113281 0.25 -1.382812 0.25 -1.6875 C 0.25 -1.976562 0.3125 -2.242188 0.4375 -2.484375 C 0.5625 -2.722656 0.734375 -2.910156 0.953125 -3.046875 C 1.179688 -3.191406 1.425781 -3.265625 1.6875 -3.265625 C 1.84375 -3.265625 1.988281 -3.234375 2.125 -3.171875 C 2.257812 -3.117188 2.375 -3.050781 2.46875 -2.96875 C 2.5625 -2.882812 2.628906 -2.816406 2.671875 -2.765625 L 2.703125 -2.765625 L 2.8125 -3.1875 L 3.109375 -3.1875 L 3.109375 -0.109375 C 3.109375 0.148438 3.050781 0.378906 2.9375 0.578125 C 2.820312 0.773438 2.660156 0.929688 2.453125 1.046875 C 2.242188 1.160156 2.007812 1.21875 1.75 1.21875 Z M 1.6875 -0.5 C 1.863281 -0.5 2.03125 -0.550781 2.1875 -0.65625 C 2.34375 -0.757812 2.46875 -0.898438 2.5625 -1.078125 C 2.65625 -1.253906 2.703125 -1.457031 2.703125 -1.6875 C 2.703125 -1.90625 2.65625 -2.101562 2.5625 -2.28125 C 2.46875 -2.46875 2.34375 -2.613281 2.1875 -2.71875 C 2.03125 -2.820312 1.863281 -2.875 1.6875 -2.875 C 1.5 -2.875 1.328125 -2.820312 1.171875 -2.71875 C 1.015625 -2.613281 0.890625 -2.46875 0.796875 -2.28125 C 0.710938 -2.101562 0.671875 -1.90625 0.671875 -1.6875 C 0.671875 -1.457031 0.710938 -1.253906 0.796875 -1.078125 C 0.890625 -0.898438 1.015625 -0.757812 1.171875 -0.65625 C 1.328125 -0.550781 1.5 -0.5 1.6875 -0.5 Z M 1.6875 -0.5 "/></g></g></g><g fill="#1d0d08" fill-opacity="1"><g transform="translate(106.958098, 73.975015)"><g><path d="M 3.1875 -1.6875 C 3.1875 -1.5625 3.175781 -1.460938 3.15625 -1.390625 L 0.671875 -1.390625 C 0.710938 -1.066406 0.832031 -0.804688 1.03125 -0.609375 C 1.226562 -0.421875 1.472656 -0.328125 1.765625 -0.328125 C 2.160156 -0.328125 2.457031 -0.492188 2.65625 -0.828125 L 3.0625 -0.828125 C 2.96875 -0.566406 2.800781 -0.351562 2.5625 -0.1875 C 2.320312 -0.0195312 2.050781 0.0625 1.75 0.0625 C 1.46875 0.0625 1.210938 -0.00390625 0.984375 -0.140625 C 0.753906 -0.285156 0.570312 -0.484375 0.4375 -0.734375 C 0.3125 -0.984375 0.25 -1.269531 0.25 -1.59375 C 0.25 -1.914062 0.316406 -2.203125 0.453125 -2.453125 C 0.585938 -2.703125 0.769531 -2.898438 1 -3.046875 C 1.226562 -3.191406 1.476562 -3.265625 1.75 -3.265625 C 2.019531 -3.265625 2.265625 -3.191406 2.484375 -3.046875 C 2.703125 -2.910156 2.875 -2.722656 3 -2.484375 C 3.125 -2.242188 3.1875 -1.976562 3.1875 -1.6875 Z M 1.75 -2.875 C 1.570312 -2.875 1.40625 -2.828125 1.25 -2.734375 C 1.09375 -2.640625 0.960938 -2.507812 0.859375 -2.34375 C 0.753906 -2.175781 0.691406 -1.984375 0.671875 -1.765625 L 2.765625 -1.765625 C 2.742188 -2.085938 2.640625 -2.351562 2.453125 -2.5625 C 2.265625 -2.769531 2.03125 -2.875 1.75 -2.875 Z M 1.75 -2.875 "/></g></g></g><g fill="#1d0d08" fill-opacity="1"><g transform="translate(110.3879, 73.975015)"><g><path d="M 0.453125 0 L 0.453125 -3.1875 L 0.765625 -3.1875 L 0.875 -2.765625 L 0.90625 -2.765625 C 0.988281 -2.890625 1.109375 -3.003906 1.265625 -3.109375 C 1.421875 -3.210938 1.585938 -3.265625 1.765625 -3.265625 C 1.867188 -3.265625 1.945312 -3.253906 2 -3.234375 L 2 -2.8125 C 1.925781 -2.832031 1.851562 -2.84375 1.78125 -2.84375 C 1.507812 -2.84375 1.289062 -2.75 1.125 -2.5625 C 0.957031 -2.382812 0.875 -2.140625 0.875 -1.828125 L 0.875 0 Z M 0.453125 0 "/></g></g></g><g fill="#1d0d08" fill-opacity="1"><g transform="translate(112.43812, 73.975015)"><g/></g></g><g fill="#1d0d08" fill-opacity="1"><g transform="translate(113.958218, 73.975015)"><g><path d="M 2.8125 -2.40625 C 3.019531 -2.34375 3.207031 -2.21875 3.375 -2.03125 C 3.550781 -1.84375 3.640625 -1.597656 3.640625 -1.296875 C 3.640625 -1.046875 3.578125 -0.820312 3.453125 -0.625 C 3.335938 -0.425781 3.171875 -0.269531 2.953125 -0.15625 C 2.742188 -0.0507812 2.503906 0 2.234375 0 L 0.5625 0 L 0.5625 -4.46875 L 2.15625 -4.46875 C 2.414062 -4.46875 2.644531 -4.414062 2.84375 -4.3125 C 3.039062 -4.21875 3.191406 -4.082031 3.296875 -3.90625 C 3.410156 -3.726562 3.46875 -3.53125 3.46875 -3.3125 C 3.46875 -3.070312 3.398438 -2.875 3.265625 -2.71875 C 3.140625 -2.570312 2.988281 -2.46875 2.8125 -2.40625 Z M 1.015625 -4.0625 L 1.015625 -2.5625 L 2.15625 -2.5625 C 2.425781 -2.5625 2.632812 -2.628906 2.78125 -2.765625 C 2.9375 -2.910156 3.015625 -3.09375 3.015625 -3.3125 C 3.015625 -3.539062 2.9375 -3.722656 2.78125 -3.859375 C 2.632812 -3.992188 2.425781 -4.0625 2.15625 -4.0625 Z M 2.234375 -0.421875 C 2.515625 -0.421875 2.742188 -0.5 2.921875 -0.65625 C 3.097656 -0.820312 3.1875 -1.035156 3.1875 -1.296875 C 3.1875 -1.546875 3.097656 -1.753906 2.921875 -1.921875 C 2.742188 -2.085938 2.515625 -2.171875 2.234375 -2.171875 L 1.015625 -2.171875 L 1.015625 -0.421875 Z M 2.234375 -0.421875 "/></g></g></g><g fill="#1d0d08" fill-opacity="1"><g transform="translate(117.879819, 73.975015)"><g><path d="M 3.1875 -1.6875 C 3.1875 -1.5625 3.175781 -1.460938 3.15625 -1.390625 L 0.671875 -1.390625 C 0.710938 -1.066406 0.832031 -0.804688 1.03125 -0.609375 C 1.226562 -0.421875 1.472656 -0.328125 1.765625 -0.328125 C 2.160156 -0.328125 2.457031 -0.492188 2.65625 -0.828125 L 3.0625 -0.828125 C 2.96875 -0.566406 2.800781 -0.351562 2.5625 -0.1875 C 2.320312 -0.0195312 2.050781 0.0625 1.75 0.0625 C 1.46875 0.0625 1.210938 -0.00390625 0.984375 -0.140625 C 0.753906 -0.285156 0.570312 -0.484375 0.4375 -0.734375 C 0.3125 -0.984375 0.25 -1.269531 0.25 -1.59375 C 0.25 -1.914062 0.316406 -2.203125 0.453125 -2.453125 C 0.585938 -2.703125 0.769531 -2.898438 1 -3.046875 C 1.226562 -3.191406 1.476562 -3.265625 1.75 -3.265625 C 2.019531 -3.265625 2.265625 -3.191406 2.484375 -3.046875 C 2.703125 -2.910156 2.875 -2.722656 3 -2.484375 C 3.125 -2.242188 3.1875 -1.976562 3.1875 -1.6875 Z M 1.75 -2.875 C 1.570312 -2.875 1.40625 -2.828125 1.25 -2.734375 C 1.09375 -2.640625 0.960938 -2.507812 0.859375 -2.34375 C 0.753906 -2.175781 0.691406 -1.984375 0.671875 -1.765625 L 2.765625 -1.765625 C 2.742188 -2.085938 2.640625 -2.351562 2.453125 -2.5625 C 2.265625 -2.769531 2.03125 -2.875 1.75 -2.875 Z M 1.75 -2.875 "/></g></g></g><g fill="#1d0d08" fill-opacity="1"><g transform="translate(121.309621, 73.975015)"><g><path d="M 0.484375 0 L 0.484375 -4.46875 L 0.90625 -4.46875 L 0.90625 0 Z M 2.8125 -3.1875 L 1.421875 -1.65625 L 2.953125 0 L 2.40625 0 L 0.90625 -1.625 L 2.296875 -3.1875 Z M 2.8125 -3.1875 "/></g></g></g><g fill="#1d0d08" fill-opacity="1"><g transform="translate(124.215695, 73.975015)"><g><path d="M 0.90625 0 L 0.484375 0 L 0.484375 -4.46875 L 0.90625 -4.46875 Z M 0.90625 0 "/></g></g></g><g fill="#1d0d08" fill-opacity="1"><g transform="translate(125.614443, 73.975015)"><g><path d="M 3.1875 -1.6875 C 3.1875 -1.5625 3.175781 -1.460938 3.15625 -1.390625 L 0.671875 -1.390625 C 0.710938 -1.066406 0.832031 -0.804688 1.03125 -0.609375 C 1.226562 -0.421875 1.472656 -0.328125 1.765625 -0.328125 C 2.160156 -0.328125 2.457031 -0.492188 2.65625 -0.828125 L 3.0625 -0.828125 C 2.96875 -0.566406 2.800781 -0.351562 2.5625 -0.1875 C 2.320312 -0.0195312 2.050781 0.0625 1.75 0.0625 C 1.46875 0.0625 1.210938 -0.00390625 0.984375 -0.140625 C 0.753906 -0.285156 0.570312 -0.484375 0.4375 -0.734375 C 0.3125 -0.984375 0.25 -1.269531 0.25 -1.59375 C 0.25 -1.914062 0.316406 -2.203125 0.453125 -2.453125 C 0.585938 -2.703125 0.769531 -2.898438 1 -3.046875 C 1.226562 -3.191406 1.476562 -3.265625 1.75 -3.265625 C 2.019531 -3.265625 2.265625 -3.191406 2.484375 -3.046875 C 2.703125 -2.910156 2.875 -2.722656 3 -2.484375 C 3.125 -2.242188 3.1875 -1.976562 3.1875 -1.6875 Z M 1.75 -2.875 C 1.570312 -2.875 1.40625 -2.828125 1.25 -2.734375 C 1.09375 -2.640625 0.960938 -2.507812 0.859375 -2.34375 C 0.753906 -2.175781 0.691406 -1.984375 0.671875 -1.765625 L 2.765625 -1.765625 C 2.742188 -2.085938 2.640625 -2.351562 2.453125 -2.5625 C 2.265625 -2.769531 2.03125 -2.875 1.75 -2.875 Z M 1.75 -2.875 "/></g></g></g><g fill="#1d0d08" fill-opacity="1"><g transform="translate(129.044245, 73.975015)"><g><path d="M 0.875 0 L 0.453125 0 L 0.453125 -3.1875 L 0.875 -3.1875 Z M 0.671875 -3.703125 C 0.597656 -3.703125 0.53125 -3.726562 0.46875 -3.78125 C 0.414062 -3.84375 0.390625 -3.914062 0.390625 -4 C 0.390625 -4.082031 0.414062 -4.148438 0.46875 -4.203125 C 0.53125 -4.253906 0.597656 -4.28125 0.671875 -4.28125 C 0.765625 -4.28125 0.835938 -4.253906 0.890625 -4.203125 C 0.941406 -4.148438 0.96875 -4.082031 0.96875 -4 C 0.96875 -3.914062 0.9375 -3.84375 0.875 -3.78125 C 0.820312 -3.726562 0.753906 -3.703125 0.671875 -3.703125 Z M 0.671875 -3.703125 "/></g></g></g><g fill="#1d0d08" fill-opacity="1"><g transform="translate(130.379121, 73.975015)"><g><path d="M 1.71875 0.0625 C 1.445312 0.0625 1.195312 -0.00390625 0.96875 -0.140625 C 0.75 -0.285156 0.570312 -0.484375 0.4375 -0.734375 C 0.3125 -0.992188 0.25 -1.28125 0.25 -1.59375 C 0.25 -1.914062 0.3125 -2.203125 0.4375 -2.453125 C 0.570312 -2.710938 0.75 -2.910156 0.96875 -3.046875 C 1.195312 -3.191406 1.445312 -3.265625 1.71875 -3.265625 C 1.882812 -3.265625 2.035156 -3.234375 2.171875 -3.171875 C 2.316406 -3.109375 2.4375 -3.035156 2.53125 -2.953125 C 2.632812 -2.878906 2.703125 -2.816406 2.734375 -2.765625 L 2.78125 -2.765625 L 2.78125 -4.46875 L 3.1875 -4.46875 L 3.1875 0 L 2.875 0 L 2.78125 -0.4375 L 2.734375 -0.4375 C 2.691406 -0.375 2.625 -0.300781 2.53125 -0.21875 C 2.4375 -0.144531 2.316406 -0.078125 2.171875 -0.015625 C 2.035156 0.0351562 1.882812 0.0625 1.71875 0.0625 Z M 1.71875 -0.328125 C 1.90625 -0.328125 2.082031 -0.378906 2.25 -0.484375 C 2.414062 -0.585938 2.546875 -0.738281 2.640625 -0.9375 C 2.734375 -1.132812 2.78125 -1.351562 2.78125 -1.59375 C 2.78125 -1.84375 2.734375 -2.0625 2.640625 -2.25 C 2.546875 -2.445312 2.414062 -2.597656 2.25 -2.703125 C 2.082031 -2.816406 1.90625 -2.875 1.71875 -2.875 C 1.53125 -2.875 1.351562 -2.816406 1.1875 -2.703125 C 1.03125 -2.597656 0.90625 -2.445312 0.8125 -2.25 C 0.71875 -2.0625 0.671875 -1.84375 0.671875 -1.59375 C 0.671875 -1.351562 0.71875 -1.132812 0.8125 -0.9375 C 0.90625 -0.738281 1.03125 -0.585938 1.1875 -0.484375 C 1.351562 -0.378906 1.53125 -0.328125 1.71875 -0.328125 Z M 1.71875 -0.328125 "/></g></g></g><g fill="#1d0d08" fill-opacity="1"><g transform="translate(134.058017, 73.975015)"><g><path d="M 1.703125 0.0625 C 1.460938 0.0625 1.242188 0.00390625 1.046875 -0.109375 C 0.859375 -0.222656 0.707031 -0.382812 0.59375 -0.59375 C 0.476562 -0.8125 0.421875 -1.0625 0.421875 -1.34375 L 0.421875 -3.1875 L 0.84375 -3.1875 L 0.84375 -1.34375 C 0.84375 -1.03125 0.925781 -0.78125 1.09375 -0.59375 C 1.257812 -0.414062 1.472656 -0.328125 1.734375 -0.328125 C 2.015625 -0.328125 2.238281 -0.414062 2.40625 -0.59375 C 2.582031 -0.78125 2.671875 -1.03125 2.671875 -1.34375 L 2.671875 -3.1875 L 3.09375 -3.1875 L 3.09375 0 L 2.78125 0 L 2.671875 -0.4375 L 2.640625 -0.4375 C 2.554688 -0.300781 2.429688 -0.179688 2.265625 -0.078125 C 2.097656 0.015625 1.910156 0.0625 1.703125 0.0625 Z M 1.703125 0.0625 "/></g></g></g><g fill="#1d0d08" fill-opacity="1"><g transform="translate(137.602785, 73.975015)"><g><path d="M 0.453125 0 L 0.453125 -3.1875 L 0.765625 -3.1875 L 0.875 -2.765625 L 0.90625 -2.765625 C 0.988281 -2.890625 1.113281 -3.003906 1.28125 -3.109375 C 1.445312 -3.210938 1.632812 -3.265625 1.84375 -3.265625 C 2.082031 -3.265625 2.296875 -3.207031 2.484375 -3.09375 C 2.679688 -2.976562 2.835938 -2.8125 2.953125 -2.59375 C 3.066406 -2.382812 3.125 -2.140625 3.125 -1.859375 L 3.125 0 L 2.703125 0 L 2.703125 -1.859375 C 2.703125 -2.171875 2.617188 -2.414062 2.453125 -2.59375 C 2.285156 -2.78125 2.070312 -2.875 1.8125 -2.875 C 1.53125 -2.875 1.300781 -2.78125 1.125 -2.59375 C 0.957031 -2.414062 0.875 -2.171875 0.875 -1.859375 L 0.875 0 Z M 0.453125 0 "/></g></g></g><g fill="#1d0d08" fill-opacity="1"><g transform="translate(141.147553, 73.975015)"><g><path d="M 1.75 1.21875 C 1.40625 1.21875 1.109375 1.128906 0.859375 0.953125 C 0.617188 0.773438 0.460938 0.539062 0.390625 0.25 L 0.8125 0.25 C 0.863281 0.425781 0.972656 0.566406 1.140625 0.671875 C 1.304688 0.773438 1.507812 0.828125 1.75 0.828125 C 2.03125 0.828125 2.257812 0.738281 2.4375 0.5625 C 2.613281 0.394531 2.703125 0.171875 2.703125 -0.109375 L 2.703125 -0.609375 L 2.671875 -0.609375 C 2.628906 -0.554688 2.5625 -0.488281 2.46875 -0.40625 C 2.375 -0.320312 2.257812 -0.25 2.125 -0.1875 C 1.988281 -0.132812 1.84375 -0.109375 1.6875 -0.109375 C 1.425781 -0.109375 1.179688 -0.175781 0.953125 -0.3125 C 0.734375 -0.445312 0.5625 -0.632812 0.4375 -0.875 C 0.3125 -1.113281 0.25 -1.382812 0.25 -1.6875 C 0.25 -1.976562 0.3125 -2.242188 0.4375 -2.484375 C 0.5625 -2.722656 0.734375 -2.910156 0.953125 -3.046875 C 1.179688 -3.191406 1.425781 -3.265625 1.6875 -3.265625 C 1.84375 -3.265625 1.988281 -3.234375 2.125 -3.171875 C 2.257812 -3.117188 2.375 -3.050781 2.46875 -2.96875 C 2.5625 -2.882812 2.628906 -2.816406 2.671875 -2.765625 L 2.703125 -2.765625 L 2.8125 -3.1875 L 3.109375 -3.1875 L 3.109375 -0.109375 C 3.109375 0.148438 3.050781 0.378906 2.9375 0.578125 C 2.820312 0.773438 2.660156 0.929688 2.453125 1.046875 C 2.242188 1.160156 2.007812 1.21875 1.75 1.21875 Z M 1.6875 -0.5 C 1.863281 -0.5 2.03125 -0.550781 2.1875 -0.65625 C 2.34375 -0.757812 2.46875 -0.898438 2.5625 -1.078125 C 2.65625 -1.253906 2.703125 -1.457031 2.703125 -1.6875 C 2.703125 -1.90625 2.65625 -2.101562 2.5625 -2.28125 C 2.46875 -2.46875 2.34375 -2.613281 2.1875 -2.71875 C 2.03125 -2.820312 1.863281 -2.875 1.6875 -2.875 C 1.5 -2.875 1.328125 -2.820312 1.171875 -2.71875 C 1.015625 -2.613281 0.890625 -2.46875 0.796875 -2.28125 C 0.710938 -2.101562 0.671875 -1.90625 0.671875 -1.6875 C 0.671875 -1.457031 0.710938 -1.253906 0.796875 -1.078125 C 0.890625 -0.898438 1.015625 -0.757812 1.171875 -0.65625 C 1.328125 -0.550781 1.5 -0.5 1.6875 -0.5 Z M 1.6875 -0.5 "/></g></g></g></svg>